<?xml version="1.0" encoding="utf-8"?>
<!-- Generator: Adobe Illustrator 22.0.1, SVG Export Plug-In . SVG Version: 6.00 Build 0)  -->
<svg version="1.1" id="Layer_1" xmlns="http://www.w3.org/2000/svg" xmlns:xlink="http://www.w3.org/1999/xlink" x="0px" y="0px"
	 viewBox="0 0 182 62" style="enable-background:new 0 0 182 62;" xml:space="preserve">
<style type="text/css">
	.st0{enable-background:new    ;}
	.st1{fill:#FFFFFF;}
	.st2{fill:#3BCAE2;}
	.st3{filter:url(#Adobe_OpacityMaskFilter);}
	.st4{mask:url(#mask-2_1_);fill:#3BCAE2;}
	.st5{fill:none;stroke:#3BCAE2;stroke-width:3;stroke-linecap:round;}
</style>
<title>Group 4</title>
<desc>Created with Sketch.</desc>
<g class="st0">
	<path class="st1" d="M101.8,27.8c-0.5,0.4-1.1,0.6-1.8,0.8c-0.7,0.1-1.5,0.2-2.4,0.2c-1,0-2-0.2-2.8-0.5c-0.9-0.3-1.6-0.9-2.3-1.6
		c-0.7-0.7-1.2-1.6-1.6-2.7c-0.4-1.1-0.6-2.4-0.6-3.9c0-1.6,0.2-2.9,0.6-4c0.4-1.1,1-2,1.7-2.7c0.7-0.7,1.5-1.2,2.3-1.5
		c0.9-0.3,1.7-0.5,2.6-0.5c1,0,1.7,0.1,2.4,0.2c0.6,0.1,1.1,0.2,1.6,0.4l-0.5,1.8c-0.8-0.4-1.9-0.6-3.3-0.6c-0.7,0-1.3,0.1-1.9,0.4
		s-1.2,0.6-1.7,1.2c-0.5,0.5-0.9,1.3-1.2,2.1c-0.3,0.9-0.5,2-0.5,3.2c0,1.2,0.1,2.2,0.4,3c0.3,0.9,0.7,1.6,1.2,2.2s1.1,1,1.8,1.3
		s1.4,0.4,2.2,0.4c0.7,0,1.3-0.1,1.9-0.2c0.5-0.1,1-0.3,1.4-0.6L101.8,27.8z"/>
	<path class="st1" d="M104.6,12.9c0-0.4,0.1-0.7,0.4-0.9c0.2-0.3,0.6-0.4,0.9-0.4s0.7,0.1,1,0.4c0.3,0.3,0.4,0.6,0.4,0.9
		c0,0.4-0.1,0.7-0.4,0.9c-0.3,0.2-0.6,0.4-1,0.4s-0.7-0.1-0.9-0.4C104.7,13.6,104.6,13.2,104.6,12.9z M105,16.5h1.9v12H105V16.5z"/>
	<path class="st1" d="M109.4,16.5h1.9v-2.4l1.9-0.6v2.9h3.3v1.7h-3.3v6.6c0,0.8,0.1,1.4,0.3,1.8c0.2,0.3,0.6,0.5,1.1,0.5
		c0.4,0,0.8,0,1.1-0.1c0.3-0.1,0.6-0.2,1-0.3l0.4,1.5c-0.4,0.2-0.9,0.4-1.4,0.5s-1.1,0.2-1.7,0.2c-1,0-1.7-0.3-2.1-0.8
		c-0.4-0.6-0.6-1.5-0.6-2.8v-7h-1.9V16.5z"/>
	<path class="st1" d="M122.7,24.3l0.7,2.3h0.1l0.5-2.3l2.3-7.8h1.9l-3.6,10.8c-0.3,0.8-0.5,1.5-0.8,2.3c-0.3,0.7-0.6,1.4-0.9,2
		c-0.3,0.6-0.7,1-1.1,1.4c-0.4,0.3-0.9,0.5-1.4,0.5c-0.6,0-1-0.1-1.4-0.2l0.3-1.7c0.2,0.1,0.4,0.1,0.6,0.1c0.4,0,0.9-0.2,1.3-0.7
		c0.4-0.5,0.8-1.3,1-2.4l-4.8-12h2.2L122.7,24.3z"/>
</g>
<g class="st0">
	<path class="st2" d="M134.7,11.2c0.3,0,0.7-0.1,1.1-0.1c0.4,0,0.9-0.1,1.3-0.1c0.4,0,0.9,0,1.3,0c0.4,0,0.8,0,1.1,0
		c1.5,0,2.8,0.2,3.8,0.6c1.1,0.4,1.9,1,2.6,1.8s1.1,1.6,1.4,2.7c0.3,1,0.5,2.2,0.5,3.4c0,1.1-0.1,2.2-0.4,3.3s-0.8,2-1.4,2.8
		c-0.7,0.8-1.6,1.5-2.7,2c-1.1,0.5-2.5,0.7-4.1,0.7c-0.3,0-0.6,0-1,0c-0.4,0-0.9,0-1.3-0.1c-0.5,0-0.9,0-1.3-0.1
		c-0.4,0-0.7-0.1-0.9-0.1V11.2z M139.8,13.9c-0.4,0-0.7,0-1.1,0c-0.4,0-0.6,0-0.8,0.1v11.3c0.1,0,0.2,0,0.3,0s0.3,0,0.5,0
		c0.2,0,0.3,0,0.5,0c0.2,0,0.3,0,0.4,0c0.9,0,1.7-0.2,2.3-0.5c0.6-0.3,1.1-0.8,1.5-1.3c0.4-0.5,0.6-1.2,0.8-1.9
		c0.1-0.7,0.2-1.4,0.2-2.2c0-0.7-0.1-1.3-0.2-2c-0.1-0.7-0.4-1.3-0.7-1.8c-0.3-0.5-0.8-1-1.4-1.3S140.7,13.9,139.8,13.9z"/>
	<path class="st2" d="M150.1,16.7c0.6-0.3,1.4-0.5,2.3-0.7c0.9-0.2,1.8-0.3,2.8-0.3c0.8,0,1.5,0.1,2.1,0.3c0.6,0.2,1,0.5,1.3,0.9
		s0.6,0.8,0.7,1.3c0.1,0.5,0.2,1.1,0.2,1.7c0,0.7,0,1.4-0.1,2.1s-0.1,1.4-0.1,2.1c0,0.7,0,1.4,0.1,2c0,0.6,0.2,1.3,0.4,1.8h-2.5
		l-0.5-1.7h-0.1c-0.3,0.5-0.8,0.9-1.3,1.3c-0.6,0.4-1.3,0.5-2.2,0.5c-0.6,0-1.1-0.1-1.5-0.3s-0.8-0.4-1.2-0.7
		c-0.3-0.3-0.6-0.7-0.7-1.1c-0.2-0.4-0.3-0.9-0.3-1.4c0-0.7,0.2-1.4,0.5-1.9s0.8-0.9,1.4-1.2c0.6-0.3,1.4-0.5,2.2-0.6
		c0.9-0.1,1.8-0.2,2.9-0.1c0.1-0.9,0-1.5-0.2-1.9c-0.2-0.4-0.8-0.6-1.6-0.6c-0.6,0-1.3,0.1-2,0.2c-0.7,0.1-1.3,0.3-1.7,0.5
		L150.1,16.7z M154,25.6c0.6,0,1.1-0.1,1.5-0.4s0.6-0.6,0.8-0.9v-1.6c-0.5,0-1-0.1-1.4,0c-0.5,0-0.9,0.1-1.2,0.2
		c-0.4,0.1-0.6,0.3-0.8,0.5s-0.3,0.5-0.3,0.8c0,0.4,0.1,0.8,0.4,1C153.2,25.5,153.6,25.6,154,25.6z"/>
	<path class="st2" d="M160.8,16h1.7v-2.3l3.1-0.9V16h2.9v2.6h-2.9v4.6c0,0.8,0.1,1.4,0.3,1.8s0.5,0.5,0.9,0.5c0.3,0,0.6,0,0.8-0.1
		c0.2-0.1,0.5-0.2,0.8-0.3l0.6,2.4c-0.4,0.2-0.9,0.4-1.5,0.5c-0.6,0.1-1.2,0.2-1.8,0.2c-1.1,0-1.9-0.3-2.4-0.9
		c-0.5-0.6-0.8-1.5-0.8-2.8v-6h-1.7V16z"/>
	<path class="st2" d="M170.3,16.7c0.6-0.3,1.4-0.5,2.3-0.7c0.9-0.2,1.8-0.3,2.8-0.3c0.8,0,1.5,0.1,2.1,0.3c0.6,0.2,1,0.5,1.3,0.9
		s0.6,0.8,0.7,1.3c0.1,0.5,0.2,1.1,0.2,1.7c0,0.7,0,1.4-0.1,2.1s-0.1,1.4-0.1,2.1c0,0.7,0,1.4,0.1,2c0,0.6,0.2,1.3,0.4,1.8h-2.5
		l-0.5-1.7h-0.1c-0.3,0.5-0.8,0.9-1.3,1.3c-0.6,0.4-1.3,0.5-2.2,0.5c-0.6,0-1.1-0.1-1.5-0.3c-0.4-0.2-0.8-0.4-1.2-0.7
		c-0.3-0.3-0.6-0.7-0.7-1.1s-0.3-0.9-0.3-1.4c0-0.7,0.2-1.4,0.5-1.9c0.3-0.5,0.8-0.9,1.4-1.2c0.6-0.3,1.4-0.5,2.2-0.6
		c0.9-0.1,1.8-0.2,2.9-0.1c0.1-0.9,0-1.5-0.2-1.9c-0.2-0.4-0.8-0.6-1.6-0.6c-0.6,0-1.3,0.1-2,0.2c-0.7,0.1-1.3,0.3-1.7,0.5
		L170.3,16.7z M174.3,25.6c0.6,0,1.1-0.1,1.5-0.4c0.4-0.3,0.6-0.6,0.8-0.9v-1.6c-0.5,0-1-0.1-1.4,0c-0.5,0-0.9,0.1-1.2,0.2
		c-0.4,0.1-0.6,0.3-0.8,0.5c-0.2,0.2-0.3,0.5-0.3,0.8c0,0.4,0.1,0.8,0.4,1C173.5,25.5,173.8,25.6,174.3,25.6z"/>
</g>
<g class="st0">
	<path class="st1" d="M91,37.7h9.1v1.8H93V45h6.6v1.8H93v6h7.3v1.8H91V37.7z"/>
	<path class="st1" d="M107.7,48.4l-4-5.9h2.4l2.3,3.3l0.7,1.4l0.7-1.4l2.3-3.3h2.2l-4.1,5.8l4.3,6.2h-2.3l-2.5-3.6l-0.7-1.4
		l-0.7,1.4l-2.6,3.6h-2.1L107.7,48.4z"/>
	<path class="st1" d="M117.8,42.5h1.3l0.4,1.4h0.1c0.4-0.6,0.8-1,1.4-1.3s1.3-0.4,2-0.4c1.6,0,2.8,0.5,3.6,1.4
		c0.8,0.9,1.2,2.5,1.2,4.6c0,1-0.1,1.9-0.4,2.7c-0.3,0.8-0.6,1.5-1.1,2.1c-0.5,0.6-1.1,1-1.7,1.3c-0.7,0.3-1.4,0.5-2.3,0.5
		c-0.6,0-1.1,0-1.4-0.1c-0.3-0.1-0.7-0.2-1.1-0.4v5h-1.9V42.5z M122.7,43.9c-0.8,0-1.5,0.2-1.9,0.6c-0.5,0.4-0.8,1.1-1,1.9v6
		c0.3,0.2,0.6,0.4,1,0.5s0.9,0.2,1.5,0.2c1.1,0,2-0.4,2.6-1.2s1-2,1-3.6c0-0.7-0.1-1.3-0.2-1.8c-0.1-0.5-0.3-1-0.5-1.4
		s-0.6-0.7-1-0.9C123.8,44,123.3,43.9,122.7,43.9z"/>
	<path class="st1" d="M133.9,51.6c0,0.6,0.1,1,0.3,1.2s0.5,0.4,0.8,0.4c0.2,0,0.4,0,0.7,0c0.2,0,0.5-0.1,0.8-0.2l0.2,1.5
		c-0.3,0.1-0.6,0.2-1.1,0.3s-0.9,0.1-1.2,0.1c-0.7,0-1.3-0.2-1.8-0.6c-0.5-0.4-0.7-1.1-0.7-2.1V37.7h1.9V51.6z"/>
	<path class="st1" d="M138.9,48.5c0-2,0.5-3.6,1.4-4.7c0.9-1.1,2.2-1.6,3.9-1.6c0.9,0,1.7,0.1,2.3,0.4s1.2,0.7,1.6,1.3
		c0.4,0.6,0.8,1.2,1,2c0.2,0.8,0.3,1.6,0.3,2.6c0,2-0.5,3.6-1.4,4.7s-2.2,1.6-3.9,1.6c-0.9,0-1.7-0.1-2.3-0.4s-1.2-0.7-1.6-1.3
		c-0.4-0.6-0.8-1.2-1-2C139,50.3,138.9,49.5,138.9,48.5z M140.9,48.5c0,0.6,0.1,1.2,0.2,1.8c0.1,0.6,0.3,1,0.6,1.5s0.6,0.8,1,1
		c0.4,0.3,0.9,0.4,1.5,0.4c2.2,0,3.3-1.5,3.3-4.6c0-0.6-0.1-1.2-0.2-1.8c-0.1-0.6-0.3-1-0.6-1.5c-0.3-0.4-0.6-0.7-1-1
		c-0.4-0.2-0.9-0.4-1.5-0.4C142,43.9,140.9,45.4,140.9,48.5z"/>
	<path class="st1" d="M159,44.4c-0.5-0.2-0.9-0.2-1.4-0.2c-0.7,0-1.2,0.2-1.6,0.6c-0.4,0.4-0.6,0.9-0.7,1.4v8.4h-1.9v-12h1.3
		l0.4,1.5h0.1c0.3-0.5,0.7-1,1.1-1.3c0.4-0.3,1-0.4,1.6-0.4c0.5,0,1,0.1,1.6,0.2L159,44.4z"/>
	<path class="st1" d="M171.2,53.6c-0.5,0.4-1.1,0.7-1.8,0.9s-1.5,0.3-2.3,0.3c-0.9,0-1.7-0.1-2.4-0.4s-1.2-0.7-1.7-1.3
		c-0.4-0.6-0.8-1.2-1-2c-0.2-0.8-0.3-1.6-0.3-2.6c0-2,0.5-3.6,1.4-4.7s2.2-1.6,3.9-1.6c0.5,0,1.1,0.1,1.6,0.2c0.5,0.1,1,0.3,1.5,0.7
		s0.8,0.8,1.1,1.4c0.3,0.6,0.4,1.4,0.4,2.4c0,0.5,0,1.1-0.1,1.8h-7.7c0,0.7,0.1,1.3,0.2,1.9c0.1,0.5,0.4,1,0.7,1.4
		c0.3,0.4,0.7,0.7,1.2,0.9c0.5,0.2,1.1,0.3,1.8,0.3c0.5,0,1.1-0.1,1.6-0.3c0.5-0.2,1-0.4,1.2-0.7L171.2,53.6z M167,43.9
		c-0.9,0-1.7,0.2-2.3,0.7c-0.6,0.5-0.9,1.3-1,2.5h6c0-1.2-0.2-2.1-0.7-2.6C168.6,44.2,167.9,43.9,167,43.9z"/>
	<path class="st1" d="M181.2,44.4c-0.5-0.2-0.9-0.2-1.4-0.2c-0.7,0-1.2,0.2-1.6,0.6c-0.4,0.4-0.6,0.9-0.7,1.4v8.4h-1.9v-12h1.3
		l0.4,1.5h0.1c0.3-0.5,0.7-1,1.1-1.3s1-0.4,1.6-0.4c0.5,0,1,0.1,1.6,0.2L181.2,44.4z"/>
</g>
<g id="Page-1">
	<g id="Group-112">
		<g id="Clip-111">
		</g>
		<defs>
			<filter id="Adobe_OpacityMaskFilter" filterUnits="userSpaceOnUse" x="0" y="0.3" width="80.6" height="61.1">
				<feColorMatrix  type="matrix" values="1 0 0 0 0  0 1 0 0 0  0 0 1 0 0  0 0 0 1 0"/>
			</filter>
		</defs>
		<mask maskUnits="userSpaceOnUse" x="0" y="0.3" width="80.6" height="61.1" id="mask-2_1_">
			<g class="st3">
				<polygon id="path-1_1_" class="st1" points="0,61.4 80.6,61.4 80.6,0.3 0,0.3 				"/>
			</g>
		</mask>
		<polygon id="Fill-110" class="st4" points="76.8,38.9 68,38.9 68,19.6 51.2,19.6 51.2,26.6 47,26.6 47,5.5 41.7,5.5 41.7,0.3 
			30.1,0.3 30.1,5.5 24.9,5.5 24.9,24.8 22.5,24.8 22.5,21.3 14.3,21.3 14.3,24.8 9.1,24.8 9.1,45.9 3.8,45.9 3.8,58.2 0,58.2 0,61 
			6.7,61 6.7,48.8 11.4,48.8 11.9,48.8 13.3,48.8 14.8,48.8 20.3,48.8 21.8,48.8 27.3,48.8 28.8,48.8 34.3,48.8 35.8,48.8 
			40.6,48.8 40.6,61.4 43.5,61.4 43.5,45.9 11.9,45.9 11.9,27.7 15.8,27.7 15.8,27.1 17.2,27.1 17.2,24.2 19.6,24.2 19.6,27.1 
			21,27.1 21,27.7 27.7,27.7 27.7,8.4 31.6,8.4 31.6,7 33,7 33,3.1 38.9,3.1 38.9,7 40.3,7 40.3,8.4 44.1,8.4 44.1,29.5 54,29.5 
			54,22.4 65.2,22.4 65.2,41.7 73.9,41.7 73.9,61 80.6,61 80.6,58.2 76.8,58.2 		"/>
	</g>
	<path id="Stroke-113" class="st5" d="M67.4,45.6H75"/>
	<path id="Stroke-115" class="st5" d="M67.4,50.8h7.5"/>
	<path id="Stroke-117" class="st5" d="M67.4,56.1h7.2"/>
	<path id="Stroke-119" class="st5" d="M10.9,31.7h4.3"/>
	<path id="Stroke-121" class="st5" d="M10.9,36.9h4.3"/>
	<path id="Stroke-123" class="st5" d="M11.2,42.2h4.1"/>
	<g id="Group-2" transform="translate(11.000000, 9.000000)">
		<g class="st0">
			<path class="st1" d="M21.2,2c0.7,0,1.2,0.1,1.4,0.3s0.3,0.8,0.3,1.7c0,0.9-0.1,1.5-0.3,1.7S22,6,21.2,6S20,5.9,19.9,5.7
				S19.6,4.9,19.6,4s0.1-1.5,0.3-1.7S20.5,2,21.2,2z M21.2,2.6c-0.3,0-0.6,0-0.7,0.1s-0.1,0.3-0.1,0.7l0,0.5l0,0.5
				c0,0.4,0,0.7,0.1,0.8s0.3,0.1,0.7,0.1c0.4,0,0.7-0.1,0.7-0.2s0.1-0.5,0.1-1.2c0-0.7,0-1.1-0.1-1.2S21.6,2.6,21.2,2.6z"/>
			<path class="st1" d="M25.8,2v4H25V2.7l-1,1l-0.5-0.5L24.8,2H25.8z"/>
			<path class="st1" d="M28.8,2c0.7,0,1.2,0.1,1.4,0.3s0.3,0.8,0.3,1.7c0,0.9-0.1,1.5-0.3,1.7S29.5,6,28.8,6s-1.2-0.1-1.4-0.3
				S27.1,4.9,27.1,4s0.1-1.5,0.3-1.7S28,2,28.8,2z M28.7,2.6c-0.3,0-0.6,0-0.7,0.1s-0.1,0.3-0.1,0.7l0,0.5l0,0.5
				c0,0.4,0,0.7,0.1,0.8s0.3,0.1,0.7,0.1c0.4,0,0.7-0.1,0.7-0.2s0.1-0.5,0.1-1.2c0-0.7,0-1.1-0.1-1.2S29.2,2.6,28.7,2.6z"/>
		</g>
		<g class="st0">
			<path class="st1" d="M22,9v4h-0.8V9.7l-1,1l-0.5-0.5L21,9H22z"/>
			<path class="st1" d="M25,9c0.7,0,1.2,0.1,1.4,0.3s0.3,0.8,0.3,1.7c0,0.9-0.1,1.5-0.3,1.7S25.7,13,25,13s-1.2-0.1-1.4-0.3
				s-0.3-0.8-0.3-1.7s0.1-1.5,0.3-1.7S24.3,9,25,9z M24.9,9.6c-0.3,0-0.6,0-0.7,0.1s-0.1,0.3-0.1,0.7l0,0.5l0,0.5
				c0,0.4,0,0.7,0.1,0.8s0.3,0.1,0.7,0.1c0.4,0,0.7-0.1,0.7-0.2s0.1-0.5,0.1-1.2c0-0.7,0-1.1-0.1-1.2S25.4,9.6,24.9,9.6z"/>
			<path class="st1" d="M29.5,9v4h-0.8V9.7l-1,1l-0.5-0.5L28.6,9H29.5z"/>
		</g>
		<g class="st0">
			<path class="st1" d="M21.2,16c0.7,0,1.2,0.1,1.4,0.3s0.3,0.8,0.3,1.7c0,0.9-0.1,1.5-0.3,1.7S22,20,21.2,20s-1.2-0.1-1.4-0.3
				s-0.3-0.8-0.3-1.7s0.1-1.5,0.3-1.7S20.5,16,21.2,16z M21.2,16.6c-0.3,0-0.6,0-0.7,0.1s-0.1,0.3-0.1,0.7l0,0.5l0,0.5
				c0,0.4,0,0.7,0.1,0.8s0.3,0.1,0.7,0.1c0.4,0,0.7-0.1,0.7-0.2s0.1-0.5,0.1-1.2c0-0.7,0-1.1-0.1-1.2S21.6,16.6,21.2,16.6z"/>
			<path class="st1" d="M25.8,16v4H25v-3.3l-1,1l-0.5-0.5l1.3-1.2H25.8z"/>
			<path class="st1" d="M28.8,16c0.7,0,1.2,0.1,1.4,0.3s0.3,0.8,0.3,1.7c0,0.9-0.1,1.5-0.3,1.7S29.5,20,28.8,20s-1.2-0.1-1.4-0.3
				s-0.3-0.8-0.3-1.7s0.1-1.5,0.3-1.7S28,16,28.8,16z M28.7,16.6c-0.3,0-0.6,0-0.7,0.1s-0.1,0.3-0.1,0.7l0,0.5l0,0.5
				c0,0.4,0,0.7,0.1,0.8s0.3,0.1,0.7,0.1c0.4,0,0.7-0.1,0.7-0.2s0.1-0.5,0.1-1.2c0-0.7,0-1.1-0.1-1.2S29.2,16.6,28.7,16.6z"/>
		</g>
		<g class="st0">
			<path class="st1" d="M21.2,23c0.7,0,1.2,0.1,1.4,0.3s0.3,0.8,0.3,1.7c0,0.9-0.1,1.5-0.3,1.7S22,27,21.2,27s-1.2-0.1-1.4-0.3
				s-0.3-0.8-0.3-1.7s0.1-1.5,0.3-1.7S20.5,23,21.2,23z M21.2,23.6c-0.3,0-0.6,0-0.7,0.1s-0.1,0.3-0.1,0.7l0,0.5l0,0.5
				c0,0.4,0,0.7,0.1,0.8s0.3,0.1,0.7,0.1c0.4,0,0.7-0.1,0.7-0.2s0.1-0.5,0.1-1.2c0-0.7,0-1.1-0.1-1.2S21.6,23.6,21.2,23.6z"/>
			<path class="st1" d="M25.8,23v4H25v-3.3l-1,1l-0.5-0.5l1.3-1.2H25.8z"/>
			<path class="st1" d="M28.8,23c0.7,0,1.2,0.1,1.4,0.3s0.3,0.8,0.3,1.7c0,0.9-0.1,1.5-0.3,1.7S29.5,27,28.8,27s-1.2-0.1-1.4-0.3
				s-0.3-0.8-0.3-1.7s0.1-1.5,0.3-1.7S28,23,28.8,23z M28.7,23.6c-0.3,0-0.6,0-0.7,0.1s-0.1,0.3-0.1,0.7l0,0.5l0,0.5
				c0,0.4,0,0.7,0.1,0.8s0.3,0.1,0.7,0.1c0.4,0,0.7-0.1,0.7-0.2s0.1-0.5,0.1-1.2c0-0.7,0-1.1-0.1-1.2S29.2,23.6,28.7,23.6z"/>
		</g>
		<g class="st0">
			<path class="st1" d="M46.9,15.6c0.6,0,1,0.1,1.1,0.3c0.1,0.2,0.2,0.7,0.2,1.4c0,0.8-0.1,1.2-0.2,1.4c-0.1,0.2-0.5,0.3-1.1,0.3
				c-0.6,0-1-0.1-1.1-0.3c-0.1-0.2-0.2-0.7-0.2-1.4c0-0.8,0.1-1.2,0.2-1.4C45.9,15.7,46.3,15.6,46.9,15.6z M46.9,16.2
				c-0.3,0-0.5,0-0.6,0.1c-0.1,0.1-0.1,0.3-0.1,0.6l0,0.4l0,0.4c0,0.3,0,0.5,0.1,0.6s0.3,0.1,0.6,0.1c0.3,0,0.5-0.1,0.6-0.2
				s0.1-0.4,0.1-1c0-0.6,0-0.9-0.1-1C47.5,16.2,47.3,16.2,46.9,16.2z"/>
			<path class="st1" d="M50.7,15.7V19h-0.6v-2.8l-0.9,0.9l-0.4-0.4l1.1-1H50.7z"/>
		</g>
		<g class="st0">
			<path class="st1" d="M47.6,21.7V25h-0.6v-2.8l-0.9,0.9l-0.4-0.4l1.1-1H47.6z"/>
			<path class="st1" d="M50.1,21.6c0.6,0,1,0.1,1.1,0.3c0.1,0.2,0.2,0.7,0.2,1.4c0,0.8-0.1,1.2-0.2,1.4c-0.1,0.2-0.5,0.3-1.1,0.3
				c-0.6,0-1-0.1-1.1-0.3c-0.1-0.2-0.2-0.7-0.2-1.4c0-0.8,0.1-1.2,0.2-1.4C49.1,21.7,49.5,21.6,50.1,21.6z M50,22.2
				c-0.3,0-0.5,0-0.6,0.1c-0.1,0.1-0.1,0.3-0.1,0.6l0,0.4l0,0.4c0,0.3,0,0.5,0.1,0.6s0.3,0.1,0.6,0.1c0.3,0,0.5-0.1,0.6-0.2
				s0.1-0.4,0.1-1c0-0.6,0-0.9-0.1-1C50.6,22.2,50.4,22.2,50,22.2z"/>
		</g>
		<g class="st0">
			<path class="st1" d="M46.9,27.6c0.6,0,1,0.1,1.1,0.3c0.1,0.2,0.2,0.7,0.2,1.4c0,0.8-0.1,1.2-0.2,1.4c-0.1,0.2-0.5,0.3-1.1,0.3
				c-0.6,0-1-0.1-1.1-0.3c-0.1-0.2-0.2-0.7-0.2-1.4c0-0.8,0.1-1.2,0.2-1.4C45.9,27.7,46.3,27.6,46.9,27.6z M46.9,28.2
				c-0.3,0-0.5,0-0.6,0.1c-0.1,0.1-0.1,0.3-0.1,0.6l0,0.4l0,0.4c0,0.3,0,0.5,0.1,0.6s0.3,0.1,0.6,0.1c0.3,0,0.5-0.1,0.6-0.2
				s0.1-0.4,0.1-1c0-0.6,0-0.9-0.1-1C47.5,28.2,47.3,28.2,46.9,28.2z"/>
			<path class="st1" d="M50.7,27.7V31h-0.6v-2.8l-0.9,0.9l-0.4-0.4l1.1-1H50.7z"/>
		</g>
		<g class="st0">
			<path class="st1" d="M46.9,33.6c0.6,0,1,0.1,1.1,0.3c0.1,0.2,0.2,0.7,0.2,1.4c0,0.8-0.1,1.2-0.2,1.4c-0.1,0.2-0.5,0.3-1.1,0.3
				c-0.6,0-1-0.1-1.1-0.3c-0.1-0.2-0.2-0.7-0.2-1.4c0-0.8,0.1-1.2,0.2-1.4C45.9,33.7,46.3,33.6,46.9,33.6z M46.9,34.2
				c-0.3,0-0.5,0-0.6,0.1c-0.1,0.1-0.1,0.3-0.1,0.6l0,0.4l0,0.4c0,0.3,0,0.5,0.1,0.6s0.3,0.1,0.6,0.1c0.3,0,0.5-0.1,0.6-0.2
				s0.1-0.4,0.1-1c0-0.6,0-0.9-0.1-1C47.5,34.2,47.3,34.2,46.9,34.2z"/>
			<path class="st1" d="M50.7,33.7V37h-0.6v-2.8l-0.9,0.9l-0.4-0.4l1.1-1H50.7z"/>
		</g>
		<g class="st0">
			<path class="st1" d="M47.6,39.7V43h-0.6v-2.8l-0.9,0.9l-0.4-0.4l1.1-1H47.6z"/>
			<path class="st1" d="M50.1,39.6c0.6,0,1,0.1,1.1,0.3c0.1,0.2,0.2,0.7,0.2,1.4c0,0.8-0.1,1.2-0.2,1.4c-0.1,0.2-0.5,0.3-1.1,0.3
				c-0.6,0-1-0.1-1.1-0.3c-0.1-0.2-0.2-0.7-0.2-1.4c0-0.8,0.1-1.2,0.2-1.4C49.1,39.7,49.5,39.6,50.1,39.6z M50,40.2
				c-0.3,0-0.5,0-0.6,0.1c-0.1,0.1-0.1,0.3-0.1,0.6l0,0.4l0,0.4c0,0.3,0,0.5,0.1,0.6s0.3,0.1,0.6,0.1c0.3,0,0.5-0.1,0.6-0.2
				s0.1-0.4,0.1-1c0-0.6,0-0.9-0.1-1C50.6,40.2,50.4,40.2,50,40.2z"/>
		</g>
		<g class="st0">
			<path class="st1" d="M46.9,45.6c0.6,0,1,0.1,1.1,0.3c0.1,0.2,0.2,0.7,0.2,1.4c0,0.8-0.1,1.2-0.2,1.4c-0.1,0.2-0.5,0.3-1.1,0.3
				c-0.6,0-1-0.1-1.1-0.3c-0.1-0.2-0.2-0.7-0.2-1.4c0-0.8,0.1-1.2,0.2-1.4C45.9,45.7,46.3,45.6,46.9,45.6z M46.9,46.2
				c-0.3,0-0.5,0-0.6,0.1c-0.1,0.1-0.1,0.3-0.1,0.6l0,0.4l0,0.4c0,0.3,0,0.5,0.1,0.6s0.3,0.1,0.6,0.1c0.3,0,0.5-0.1,0.6-0.2
				s0.1-0.4,0.1-1c0-0.6,0-0.9-0.1-1C47.5,46.2,47.3,46.2,46.9,46.2z"/>
			<path class="st1" d="M50.7,45.7V49h-0.6v-2.8l-0.9,0.9l-0.4-0.4l1.1-1H50.7z"/>
		</g>
		<g class="st0">
			<path class="st1" d="M9.6,20.7V24H8.9v-2.8l-0.9,0.9l-0.4-0.4l1.1-1H9.6z"/>
			<path class="st1" d="M12.1,20.6c0.6,0,1,0.1,1.1,0.3c0.1,0.2,0.2,0.7,0.2,1.4c0,0.8-0.1,1.2-0.2,1.4c-0.1,0.2-0.5,0.3-1.1,0.3
				c-0.6,0-1-0.1-1.1-0.3c-0.1-0.2-0.2-0.7-0.2-1.4c0-0.8,0.1-1.2,0.2-1.4C11.1,20.7,11.5,20.6,12.1,20.6z M12,21.2
				c-0.3,0-0.5,0-0.6,0.1c-0.1,0.1-0.1,0.3-0.1,0.6l0,0.4l0,0.4c0,0.3,0,0.5,0.1,0.6s0.3,0.1,0.6,0.1c0.3,0,0.5-0.1,0.6-0.2
				s0.1-0.4,0.1-1c0-0.6,0-0.9-0.1-1C12.6,21.2,12.4,21.2,12,21.2z"/>
		</g>
		<g class="st0">
			<path class="st1" d="M8.9,26.6c0.6,0,1,0.1,1.1,0.3c0.1,0.2,0.2,0.7,0.2,1.4c0,0.8-0.1,1.2-0.2,1.4C9.9,29.9,9.5,30,8.9,30
				c-0.6,0-1-0.1-1.1-0.3c-0.1-0.2-0.2-0.7-0.2-1.4c0-0.8,0.1-1.2,0.2-1.4C7.9,26.7,8.3,26.6,8.9,26.6z M8.9,27.2
				c-0.3,0-0.5,0-0.6,0.1c-0.1,0.1-0.1,0.3-0.1,0.6l0,0.4l0,0.4c0,0.3,0,0.5,0.1,0.6s0.3,0.1,0.6,0.1c0.3,0,0.5-0.1,0.6-0.2
				s0.1-0.4,0.1-1c0-0.6,0-0.9-0.1-1C9.5,27.2,9.3,27.2,8.9,27.2z"/>
			<path class="st1" d="M12.7,26.7V30h-0.6v-2.8l-0.9,0.9l-0.4-0.4l1.1-1H12.7z"/>
		</g>
		<g class="st0">
			<path class="st1" d="M9.6,32.7V36H8.9v-2.8l-0.9,0.9l-0.4-0.4l1.1-1H9.6z"/>
			<path class="st1" d="M12.1,32.6c0.6,0,1,0.1,1.1,0.3c0.1,0.2,0.2,0.7,0.2,1.4c0,0.8-0.1,1.2-0.2,1.4c-0.1,0.2-0.5,0.3-1.1,0.3
				c-0.6,0-1-0.1-1.1-0.3c-0.1-0.2-0.2-0.7-0.2-1.4c0-0.8,0.1-1.2,0.2-1.4C11.1,32.7,11.5,32.6,12.1,32.6z M12,33.2
				c-0.3,0-0.5,0-0.6,0.1c-0.1,0.1-0.1,0.3-0.1,0.6l0,0.4l0,0.4c0,0.3,0,0.5,0.1,0.6s0.3,0.1,0.6,0.1c0.3,0,0.5-0.1,0.6-0.2
				s0.1-0.4,0.1-1c0-0.6,0-0.9-0.1-1C12.6,33.2,12.4,33.2,12,33.2z"/>
		</g>
		<g class="st0">
			<path class="st1" d="M2.2,41.7V45H1.6v-2.8l-0.9,0.9l-0.4-0.4l1.1-1H2.2z"/>
			<path class="st1" d="M4.7,41.6c0.6,0,1,0.1,1.1,0.3s0.2,0.7,0.2,1.4c0,0.8-0.1,1.2-0.2,1.4S5.3,45,4.7,45s-1-0.1-1.1-0.3
				s-0.2-0.7-0.2-1.4c0-0.8,0.1-1.2,0.2-1.4S4.1,41.6,4.7,41.6z M4.7,42.2c-0.3,0-0.5,0-0.6,0.1C4,42.4,4,42.6,4,42.9l0,0.4l0,0.4
				c0,0.3,0,0.5,0.1,0.6s0.3,0.1,0.6,0.1c0.3,0,0.5-0.1,0.6-0.2s0.1-0.4,0.1-1c0-0.6,0-0.9-0.1-1C5.3,42.2,5,42.2,4.7,42.2z"/>
			<path class="st1" d="M8.5,41.7V45H7.9v-2.8L7,43.1l-0.4-0.4l1.1-1H8.5z"/>
			<path class="st1" d="M11,41.6c0.6,0,1,0.1,1.1,0.3s0.2,0.7,0.2,1.4c0,0.8-0.1,1.2-0.2,1.4S11.6,45,11,45s-1-0.1-1.1-0.3
				s-0.2-0.7-0.2-1.4c0-0.8,0.1-1.2,0.2-1.4S10.4,41.6,11,41.6z M10.9,42.2c-0.3,0-0.5,0-0.6,0.1c-0.1,0.1-0.1,0.3-0.1,0.6l0,0.4
				l0,0.4c0,0.3,0,0.5,0.1,0.6s0.3,0.1,0.6,0.1c0.3,0,0.5-0.1,0.6-0.2s0.1-0.4,0.1-1c0-0.6,0-0.9-0.1-1
				C11.5,42.2,11.3,42.2,10.9,42.2z"/>
			<path class="st1" d="M14.8,41.7V45h-0.6v-2.8l-0.9,0.9l-0.4-0.4l1.1-1H14.8z"/>
			<path class="st1" d="M17.3,41.6c0.6,0,1,0.1,1.1,0.3s0.2,0.7,0.2,1.4c0,0.8-0.1,1.2-0.2,1.4S17.9,45,17.3,45s-1-0.1-1.1-0.3
				s-0.2-0.7-0.2-1.4c0-0.8,0.1-1.2,0.2-1.4S16.6,41.6,17.3,41.6z M17.2,42.2c-0.3,0-0.5,0-0.6,0.1c-0.1,0.1-0.1,0.3-0.1,0.6l0,0.4
				l0,0.4c0,0.3,0,0.5,0.1,0.6s0.3,0.1,0.6,0.1c0.3,0,0.5-0.1,0.6-0.2s0.1-0.4,0.1-1c0-0.6,0-0.9-0.1-1
				C17.8,42.2,17.6,42.2,17.2,42.2z"/>
			<path class="st1" d="M21,41.7V45h-0.6v-2.8l-0.9,0.9l-0.4-0.4l1.1-1H21z"/>
			<path class="st1" d="M23.5,41.6c0.6,0,1,0.1,1.1,0.3s0.2,0.7,0.2,1.4c0,0.8-0.1,1.2-0.2,1.4S24.1,45,23.5,45s-1-0.1-1.1-0.3
				s-0.2-0.7-0.2-1.4c0-0.8,0.1-1.2,0.2-1.4S22.9,41.6,23.5,41.6z M23.5,42.2c-0.3,0-0.5,0-0.6,0.1c-0.1,0.1-0.1,0.3-0.1,0.6l0,0.4
				l0,0.4c0,0.3,0,0.5,0.1,0.6s0.3,0.1,0.6,0.1c0.3,0,0.5-0.1,0.6-0.2s0.1-0.4,0.1-1c0-0.6,0-0.9-0.1-1
				C24.1,42.2,23.9,42.2,23.5,42.2z"/>
		</g>
		<g class="st0">
			<path class="st1" d="M1.6,47.6c0.6,0,1,0.1,1.1,0.3s0.2,0.7,0.2,1.4c0,0.8-0.1,1.2-0.2,1.4S2.2,51,1.6,51s-1-0.1-1.1-0.3
				s-0.2-0.7-0.2-1.4c0-0.8,0.1-1.2,0.2-1.4S1,47.6,1.6,47.6z M1.5,48.2c-0.3,0-0.5,0-0.6,0.1c-0.1,0.1-0.1,0.3-0.1,0.6l0,0.4l0,0.4
				c0,0.3,0,0.5,0.1,0.6s0.3,0.1,0.6,0.1c0.3,0,0.5-0.1,0.6-0.2s0.1-0.4,0.1-1c0-0.6,0-0.9-0.1-1C2.1,48.2,1.9,48.2,1.5,48.2z"/>
			<path class="st1" d="M5.3,47.7V51H4.7v-2.8l-0.9,0.9l-0.4-0.4l1.1-1H5.3z"/>
			<path class="st1" d="M7.8,47.6c0.6,0,1,0.1,1.1,0.3s0.2,0.7,0.2,1.4c0,0.8-0.1,1.2-0.2,1.4S8.5,51,7.8,51s-1-0.1-1.1-0.3
				s-0.2-0.7-0.2-1.4c0-0.8,0.1-1.2,0.2-1.4S7.2,47.6,7.8,47.6z M7.8,48.2c-0.3,0-0.5,0-0.6,0.1c-0.1,0.1-0.1,0.3-0.1,0.6l0,0.4
				l0,0.4c0,0.3,0,0.5,0.1,0.6s0.3,0.1,0.6,0.1c0.3,0,0.5-0.1,0.6-0.2s0.1-0.4,0.1-1c0-0.6,0-0.9-0.1-1C8.4,48.2,8.2,48.2,7.8,48.2z
				"/>
			<path class="st1" d="M11.6,47.7V51H11v-2.8l-0.9,0.9l-0.4-0.4l1.1-1H11.6z"/>
			<path class="st1" d="M14.1,47.6c0.6,0,1,0.1,1.1,0.3s0.2,0.7,0.2,1.4c0,0.8-0.1,1.2-0.2,1.4S14.7,51,14.1,51s-1-0.1-1.1-0.3
				s-0.2-0.7-0.2-1.4c0-0.8,0.1-1.2,0.2-1.4S13.5,47.6,14.1,47.6z M14.1,48.2c-0.3,0-0.5,0-0.6,0.1c-0.1,0.1-0.1,0.3-0.1,0.6l0,0.4
				l0,0.4c0,0.3,0,0.5,0.1,0.6s0.3,0.1,0.6,0.1c0.3,0,0.5-0.1,0.6-0.2s0.1-0.4,0.1-1c0-0.6,0-0.9-0.1-1
				C14.7,48.2,14.5,48.2,14.1,48.2z"/>
			<path class="st1" d="M17.9,47.7V51h-0.6v-2.8l-0.9,0.9L16,48.7l1.1-1H17.9z"/>
			<path class="st1" d="M20.4,47.6c0.6,0,1,0.1,1.1,0.3s0.2,0.7,0.2,1.4c0,0.8-0.1,1.2-0.2,1.4S21,51,20.4,51s-1-0.1-1.1-0.3
				s-0.2-0.7-0.2-1.4c0-0.8,0.1-1.2,0.2-1.4S19.8,47.6,20.4,47.6z M20.3,48.2c-0.3,0-0.5,0-0.6,0.1c-0.1,0.1-0.1,0.3-0.1,0.6l0,0.4
				l0,0.4c0,0.3,0,0.5,0.1,0.6s0.3,0.1,0.6,0.1c0.3,0,0.5-0.1,0.6-0.2s0.1-0.4,0.1-1c0-0.6,0-0.9-0.1-1C21,48.2,20.7,48.2,20.3,48.2
				z"/>
			<path class="st1" d="M24.2,47.7V51h-0.6v-2.8l-0.9,0.9l-0.4-0.4l1.1-1H24.2z"/>
		</g>
	</g>
</g>
</svg>
